%TF.GenerationSoftware,KiCad,Pcbnew,9.0.0*%
%TF.CreationDate,2025-04-08T23:38:33-04:00*%
%TF.ProjectId,pideck,70696465-636b-42e6-9b69-6361645f7063,rev?*%
%TF.SameCoordinates,Original*%
%TF.FileFunction,Soldermask,Top*%
%TF.FilePolarity,Negative*%
%FSLAX46Y46*%
G04 Gerber Fmt 4.6, Leading zero omitted, Abs format (unit mm)*
G04 Created by KiCad (PCBNEW 9.0.0) date 2025-04-08 23:38:33*
%MOMM*%
%LPD*%
G01*
G04 APERTURE LIST*
G04 Aperture macros list*
%AMRoundRect*
0 Rectangle with rounded corners*
0 $1 Rounding radius*
0 $2 $3 $4 $5 $6 $7 $8 $9 X,Y pos of 4 corners*
0 Add a 4 corners polygon primitive as box body*
4,1,4,$2,$3,$4,$5,$6,$7,$8,$9,$2,$3,0*
0 Add four circle primitives for the rounded corners*
1,1,$1+$1,$2,$3*
1,1,$1+$1,$4,$5*
1,1,$1+$1,$6,$7*
1,1,$1+$1,$8,$9*
0 Add four rect primitives between the rounded corners*
20,1,$1+$1,$2,$3,$4,$5,0*
20,1,$1+$1,$4,$5,$6,$7,0*
20,1,$1+$1,$6,$7,$8,$9,0*
20,1,$1+$1,$8,$9,$2,$3,0*%
G04 Aperture macros list end*
%ADD10RoundRect,0.100000X0.217500X0.100000X-0.217500X0.100000X-0.217500X-0.100000X0.217500X-0.100000X0*%
%ADD11RoundRect,0.100000X-0.217500X-0.100000X0.217500X-0.100000X0.217500X0.100000X-0.217500X0.100000X0*%
%ADD12R,0.584200X0.355600*%
%ADD13RoundRect,0.100000X0.100000X-0.217500X0.100000X0.217500X-0.100000X0.217500X-0.100000X-0.217500X0*%
%ADD14RoundRect,0.100000X-0.100000X0.130000X-0.100000X-0.130000X0.100000X-0.130000X0.100000X0.130000X0*%
%ADD15RoundRect,0.100000X0.100000X-0.130000X0.100000X0.130000X-0.100000X0.130000X-0.100000X-0.130000X0*%
%ADD16R,0.800000X0.550000*%
%ADD17O,0.800000X0.550000*%
%ADD18RoundRect,0.050000X0.210000X-0.115000X0.210000X0.115000X-0.210000X0.115000X-0.210000X-0.115000X0*%
%ADD19RoundRect,0.102000X0.375000X-0.150000X0.375000X0.150000X-0.375000X0.150000X-0.375000X-0.150000X0*%
%ADD20R,1.700000X1.700000*%
%ADD21O,1.700000X1.700000*%
G04 APERTURE END LIST*
D10*
%TO.C,R12*%
X132842500Y-88357050D03*
X133657500Y-88357050D03*
%TD*%
D11*
%TO.C,R9*%
X132842500Y-93453466D03*
X133657500Y-93453466D03*
%TD*%
D12*
%TO.C,Q8*%
X139688000Y-100365000D03*
X139688000Y-101364998D03*
X141212000Y-100864999D03*
%TD*%
%TO.C,Q3*%
X131412000Y-93521665D03*
X131412000Y-92521667D03*
X129888000Y-93021666D03*
%TD*%
D10*
%TO.C,R6*%
X133657500Y-100122049D03*
X132842500Y-100122049D03*
%TD*%
D11*
%TO.C,R14*%
X137442500Y-89531800D03*
X138257500Y-89531800D03*
%TD*%
D13*
%TO.C,R1*%
X136391667Y-107407500D03*
X136391667Y-106592500D03*
%TD*%
D10*
%TO.C,R8*%
X133657500Y-96200383D03*
X132842500Y-96200383D03*
%TD*%
D11*
%TO.C,R16*%
X137442500Y-93453466D03*
X138257500Y-93453466D03*
%TD*%
D12*
%TO.C,Q2*%
X131412000Y-97443332D03*
X131412000Y-96443334D03*
X129888000Y-96943333D03*
%TD*%
%TO.C,Q7*%
X139688000Y-96443334D03*
X139688000Y-97443332D03*
X141212000Y-96943333D03*
%TD*%
D11*
%TO.C,R18*%
X137442500Y-97375133D03*
X138257500Y-97375133D03*
%TD*%
D10*
%TO.C,R10*%
X133657500Y-92278716D03*
X132842500Y-92278716D03*
%TD*%
D14*
%TO.C,C3*%
X135675000Y-78055000D03*
X135675000Y-78695000D03*
%TD*%
D15*
%TO.C,C2*%
X137150000Y-78695000D03*
X137150000Y-78055000D03*
%TD*%
D13*
%TO.C,R4*%
X134908333Y-107407500D03*
X134908333Y-106592500D03*
%TD*%
D16*
%TO.C,LDO1*%
X134450000Y-80549999D03*
D17*
X134450000Y-81500000D03*
X134450000Y-82450001D03*
X136850000Y-82450001D03*
X136850000Y-81500000D03*
X136850000Y-80549999D03*
%TD*%
D11*
%TO.C,R7*%
X132842500Y-97375133D03*
X133657500Y-97375133D03*
%TD*%
%TO.C,R20*%
X137442500Y-101296799D03*
X138257500Y-101296799D03*
%TD*%
D13*
%TO.C,R3*%
X133425000Y-107407500D03*
X133425000Y-106592500D03*
%TD*%
D10*
%TO.C,R15*%
X138257500Y-92278716D03*
X137442500Y-92278716D03*
%TD*%
D12*
%TO.C,Q6*%
X139688000Y-92521667D03*
X139688000Y-93521665D03*
X141212000Y-93021666D03*
%TD*%
D11*
%TO.C,R11*%
X132842500Y-89531800D03*
X133657500Y-89531800D03*
%TD*%
D12*
%TO.C,Q1*%
X131412000Y-101364998D03*
X131412000Y-100365000D03*
X129888000Y-100864999D03*
%TD*%
D18*
%TO.C,J3*%
X136750000Y-111800000D03*
X134570000Y-111800000D03*
X136750000Y-112200000D03*
X134570000Y-112200000D03*
X136750000Y-112600000D03*
X134570000Y-112600000D03*
X136750000Y-113000000D03*
X134570000Y-113000000D03*
X136750000Y-113400000D03*
X134570000Y-113400000D03*
X136750000Y-113800000D03*
X134570000Y-113800000D03*
X136750000Y-114200000D03*
X134570000Y-114200000D03*
X136750000Y-114600000D03*
X134570000Y-114600000D03*
X136750000Y-115000000D03*
X134570000Y-115000000D03*
X136750000Y-115400000D03*
X134570000Y-115400000D03*
X136750000Y-115800000D03*
X134570000Y-115800000D03*
X136750000Y-116200000D03*
X134570000Y-116200000D03*
X136750000Y-116600000D03*
X134570000Y-116600000D03*
X136750000Y-117000000D03*
X134570000Y-117000000D03*
X136750000Y-117400000D03*
X134570000Y-117400000D03*
X136750000Y-117800000D03*
X134570000Y-117800000D03*
X136750000Y-118200000D03*
X134570000Y-118200000D03*
D19*
X136585000Y-110590000D03*
X134735000Y-110590000D03*
X136585000Y-119410000D03*
X134735000Y-119410000D03*
%TD*%
D10*
%TO.C,R17*%
X138257500Y-96200383D03*
X137442500Y-96200383D03*
%TD*%
%TO.C,R19*%
X138257500Y-100122049D03*
X137442500Y-100122049D03*
%TD*%
D12*
%TO.C,Q5*%
X139688000Y-88600001D03*
X139688000Y-89599999D03*
X141212000Y-89100000D03*
%TD*%
D11*
%TO.C,R5*%
X132842500Y-101296799D03*
X133657500Y-101296799D03*
%TD*%
D10*
%TO.C,R13*%
X138257500Y-88357050D03*
X137442500Y-88357050D03*
%TD*%
D14*
%TO.C,C1*%
X134200000Y-78055000D03*
X134200000Y-78695000D03*
%TD*%
D13*
%TO.C,R2*%
X137875000Y-107407500D03*
X137875000Y-106592500D03*
%TD*%
D12*
%TO.C,Q4*%
X131412000Y-89599999D03*
X131412000Y-88600001D03*
X129888000Y-89100000D03*
%TD*%
D20*
%TO.C,J1*%
X144500000Y-75800000D03*
D21*
X144500000Y-78340000D03*
X144500000Y-80880000D03*
X144500000Y-83420000D03*
X144500000Y-85960000D03*
X144500000Y-88500000D03*
X144500000Y-91040000D03*
X144500000Y-93580000D03*
X144500000Y-96120000D03*
X144500000Y-98660000D03*
X144500000Y-101200000D03*
X144500000Y-103740000D03*
X144500000Y-106280000D03*
X144500000Y-108820000D03*
X144500000Y-111360000D03*
X144500000Y-113900000D03*
X144500000Y-116440000D03*
X144500000Y-118980000D03*
X144500000Y-121520000D03*
X144500000Y-124060000D03*
%TD*%
D20*
%TO.C,J2*%
X126750000Y-75800000D03*
D21*
X126750000Y-78340000D03*
X126750000Y-80880000D03*
X126750000Y-83420000D03*
X126750000Y-85960000D03*
X126750000Y-88500000D03*
X126750000Y-91040000D03*
X126750000Y-93580000D03*
X126750000Y-96120000D03*
X126750000Y-98660000D03*
X126750000Y-101200000D03*
X126750000Y-103740000D03*
X126750000Y-106280000D03*
X126750000Y-108820000D03*
X126750000Y-111360000D03*
X126750000Y-113900000D03*
X126750000Y-116440000D03*
X126750000Y-118980000D03*
X126750000Y-121520000D03*
X126750000Y-124060000D03*
%TD*%
M02*
