%TF.GenerationSoftware,KiCad,Pcbnew,9.0.0*%
%TF.CreationDate,2025-04-08T23:38:32-04:00*%
%TF.ProjectId,pideck,70696465-636b-42e6-9b69-6361645f7063,rev?*%
%TF.SameCoordinates,Original*%
%TF.FileFunction,Legend,Bot*%
%TF.FilePolarity,Positive*%
%FSLAX46Y46*%
G04 Gerber Fmt 4.6, Leading zero omitted, Abs format (unit mm)*
G04 Created by KiCad (PCBNEW 9.0.0) date 2025-04-08 23:38:32*
%MOMM*%
%LPD*%
G01*
G04 APERTURE LIST*
%ADD10C,0.150000*%
%ADD11C,0.120000*%
G04 APERTURE END LIST*
D10*
X144833333Y-72484819D02*
X144833333Y-73199104D01*
X144833333Y-73199104D02*
X144880952Y-73341961D01*
X144880952Y-73341961D02*
X144976190Y-73437200D01*
X144976190Y-73437200D02*
X145119047Y-73484819D01*
X145119047Y-73484819D02*
X145214285Y-73484819D01*
X143833333Y-73484819D02*
X144404761Y-73484819D01*
X144119047Y-73484819D02*
X144119047Y-72484819D01*
X144119047Y-72484819D02*
X144214285Y-72627676D01*
X144214285Y-72627676D02*
X144309523Y-72722914D01*
X144309523Y-72722914D02*
X144404761Y-72770533D01*
X127083333Y-72484819D02*
X127083333Y-73199104D01*
X127083333Y-73199104D02*
X127130952Y-73341961D01*
X127130952Y-73341961D02*
X127226190Y-73437200D01*
X127226190Y-73437200D02*
X127369047Y-73484819D01*
X127369047Y-73484819D02*
X127464285Y-73484819D01*
X126654761Y-72580057D02*
X126607142Y-72532438D01*
X126607142Y-72532438D02*
X126511904Y-72484819D01*
X126511904Y-72484819D02*
X126273809Y-72484819D01*
X126273809Y-72484819D02*
X126178571Y-72532438D01*
X126178571Y-72532438D02*
X126130952Y-72580057D01*
X126130952Y-72580057D02*
X126083333Y-72675295D01*
X126083333Y-72675295D02*
X126083333Y-72770533D01*
X126083333Y-72770533D02*
X126130952Y-72913390D01*
X126130952Y-72913390D02*
X126702380Y-73484819D01*
X126702380Y-73484819D02*
X126083333Y-73484819D01*
D11*
%TO.C,J1*%
X143170000Y-74470000D02*
X143170000Y-75800000D01*
X143170000Y-77070000D02*
X143170000Y-125390000D01*
X144500000Y-74470000D02*
X143170000Y-74470000D01*
X145830000Y-77070000D02*
X143170000Y-77070000D01*
X145830000Y-77070000D02*
X145830000Y-125390000D01*
X145830000Y-125390000D02*
X143170000Y-125390000D01*
%TO.C,J2*%
X125420000Y-74470000D02*
X125420000Y-75800000D01*
X125420000Y-77070000D02*
X125420000Y-125390000D01*
X126750000Y-74470000D02*
X125420000Y-74470000D01*
X128080000Y-77070000D02*
X125420000Y-77070000D01*
X128080000Y-77070000D02*
X128080000Y-125390000D01*
X128080000Y-125390000D02*
X125420000Y-125390000D01*
%TD*%
M02*
