%TF.GenerationSoftware,KiCad,Pcbnew,9.0.0*%
%TF.CreationDate,2025-04-08T23:38:32-04:00*%
%TF.ProjectId,pideck,70696465-636b-42e6-9b69-6361645f7063,rev?*%
%TF.SameCoordinates,Original*%
%TF.FileFunction,Legend,Top*%
%TF.FilePolarity,Positive*%
%FSLAX46Y46*%
G04 Gerber Fmt 4.6, Leading zero omitted, Abs format (unit mm)*
G04 Created by KiCad (PCBNEW 9.0.0) date 2025-04-08 23:38:32*
%MOMM*%
%LPD*%
G01*
G04 APERTURE LIST*
%ADD10C,0.150000*%
%ADD11C,0.125000*%
%ADD12C,0.152400*%
%ADD13C,0.127000*%
%ADD14C,0.200000*%
G04 APERTURE END LIST*
D10*
X132735714Y-87851145D02*
X132469047Y-87470192D01*
X132278571Y-87851145D02*
X132278571Y-87051145D01*
X132278571Y-87051145D02*
X132583333Y-87051145D01*
X132583333Y-87051145D02*
X132659523Y-87089240D01*
X132659523Y-87089240D02*
X132697618Y-87127335D01*
X132697618Y-87127335D02*
X132735714Y-87203526D01*
X132735714Y-87203526D02*
X132735714Y-87317811D01*
X132735714Y-87317811D02*
X132697618Y-87394002D01*
X132697618Y-87394002D02*
X132659523Y-87432097D01*
X132659523Y-87432097D02*
X132583333Y-87470192D01*
X132583333Y-87470192D02*
X132278571Y-87470192D01*
X133497618Y-87851145D02*
X133040475Y-87851145D01*
X133269047Y-87851145D02*
X133269047Y-87051145D01*
X133269047Y-87051145D02*
X133192856Y-87165430D01*
X133192856Y-87165430D02*
X133116666Y-87241621D01*
X133116666Y-87241621D02*
X133040475Y-87279716D01*
X133802380Y-87127335D02*
X133840476Y-87089240D01*
X133840476Y-87089240D02*
X133916666Y-87051145D01*
X133916666Y-87051145D02*
X134107142Y-87051145D01*
X134107142Y-87051145D02*
X134183333Y-87089240D01*
X134183333Y-87089240D02*
X134221428Y-87127335D01*
X134221428Y-87127335D02*
X134259523Y-87203526D01*
X134259523Y-87203526D02*
X134259523Y-87279716D01*
X134259523Y-87279716D02*
X134221428Y-87394002D01*
X134221428Y-87394002D02*
X133764285Y-87851145D01*
X133764285Y-87851145D02*
X134259523Y-87851145D01*
X133116667Y-94762295D02*
X132850000Y-94381342D01*
X132659524Y-94762295D02*
X132659524Y-93962295D01*
X132659524Y-93962295D02*
X132964286Y-93962295D01*
X132964286Y-93962295D02*
X133040476Y-94000390D01*
X133040476Y-94000390D02*
X133078571Y-94038485D01*
X133078571Y-94038485D02*
X133116667Y-94114676D01*
X133116667Y-94114676D02*
X133116667Y-94228961D01*
X133116667Y-94228961D02*
X133078571Y-94305152D01*
X133078571Y-94305152D02*
X133040476Y-94343247D01*
X133040476Y-94343247D02*
X132964286Y-94381342D01*
X132964286Y-94381342D02*
X132659524Y-94381342D01*
X133497619Y-94762295D02*
X133650000Y-94762295D01*
X133650000Y-94762295D02*
X133726190Y-94724200D01*
X133726190Y-94724200D02*
X133764286Y-94686104D01*
X133764286Y-94686104D02*
X133840476Y-94571819D01*
X133840476Y-94571819D02*
X133878571Y-94419438D01*
X133878571Y-94419438D02*
X133878571Y-94114676D01*
X133878571Y-94114676D02*
X133840476Y-94038485D01*
X133840476Y-94038485D02*
X133802381Y-94000390D01*
X133802381Y-94000390D02*
X133726190Y-93962295D01*
X133726190Y-93962295D02*
X133573809Y-93962295D01*
X133573809Y-93962295D02*
X133497619Y-94000390D01*
X133497619Y-94000390D02*
X133459524Y-94038485D01*
X133459524Y-94038485D02*
X133421428Y-94114676D01*
X133421428Y-94114676D02*
X133421428Y-94305152D01*
X133421428Y-94305152D02*
X133459524Y-94381342D01*
X133459524Y-94381342D02*
X133497619Y-94419438D01*
X133497619Y-94419438D02*
X133573809Y-94457533D01*
X133573809Y-94457533D02*
X133726190Y-94457533D01*
X133726190Y-94457533D02*
X133802381Y-94419438D01*
X133802381Y-94419438D02*
X133840476Y-94381342D01*
X133840476Y-94381342D02*
X133878571Y-94305152D01*
X140373809Y-103038485D02*
X140297619Y-103000390D01*
X140297619Y-103000390D02*
X140221428Y-102924200D01*
X140221428Y-102924200D02*
X140107142Y-102809914D01*
X140107142Y-102809914D02*
X140030952Y-102771819D01*
X140030952Y-102771819D02*
X139954761Y-102771819D01*
X139992857Y-102962295D02*
X139916666Y-102924200D01*
X139916666Y-102924200D02*
X139840476Y-102848009D01*
X139840476Y-102848009D02*
X139802380Y-102695628D01*
X139802380Y-102695628D02*
X139802380Y-102428961D01*
X139802380Y-102428961D02*
X139840476Y-102276580D01*
X139840476Y-102276580D02*
X139916666Y-102200390D01*
X139916666Y-102200390D02*
X139992857Y-102162295D01*
X139992857Y-102162295D02*
X140145238Y-102162295D01*
X140145238Y-102162295D02*
X140221428Y-102200390D01*
X140221428Y-102200390D02*
X140297619Y-102276580D01*
X140297619Y-102276580D02*
X140335714Y-102428961D01*
X140335714Y-102428961D02*
X140335714Y-102695628D01*
X140335714Y-102695628D02*
X140297619Y-102848009D01*
X140297619Y-102848009D02*
X140221428Y-102924200D01*
X140221428Y-102924200D02*
X140145238Y-102962295D01*
X140145238Y-102962295D02*
X139992857Y-102962295D01*
X140792856Y-102505152D02*
X140716666Y-102467057D01*
X140716666Y-102467057D02*
X140678571Y-102428961D01*
X140678571Y-102428961D02*
X140640475Y-102352771D01*
X140640475Y-102352771D02*
X140640475Y-102314676D01*
X140640475Y-102314676D02*
X140678571Y-102238485D01*
X140678571Y-102238485D02*
X140716666Y-102200390D01*
X140716666Y-102200390D02*
X140792856Y-102162295D01*
X140792856Y-102162295D02*
X140945237Y-102162295D01*
X140945237Y-102162295D02*
X141021428Y-102200390D01*
X141021428Y-102200390D02*
X141059523Y-102238485D01*
X141059523Y-102238485D02*
X141097618Y-102314676D01*
X141097618Y-102314676D02*
X141097618Y-102352771D01*
X141097618Y-102352771D02*
X141059523Y-102428961D01*
X141059523Y-102428961D02*
X141021428Y-102467057D01*
X141021428Y-102467057D02*
X140945237Y-102505152D01*
X140945237Y-102505152D02*
X140792856Y-102505152D01*
X140792856Y-102505152D02*
X140716666Y-102543247D01*
X140716666Y-102543247D02*
X140678571Y-102581342D01*
X140678571Y-102581342D02*
X140640475Y-102657533D01*
X140640475Y-102657533D02*
X140640475Y-102809914D01*
X140640475Y-102809914D02*
X140678571Y-102886104D01*
X140678571Y-102886104D02*
X140716666Y-102924200D01*
X140716666Y-102924200D02*
X140792856Y-102962295D01*
X140792856Y-102962295D02*
X140945237Y-102962295D01*
X140945237Y-102962295D02*
X141021428Y-102924200D01*
X141021428Y-102924200D02*
X141059523Y-102886104D01*
X141059523Y-102886104D02*
X141097618Y-102809914D01*
X141097618Y-102809914D02*
X141097618Y-102657533D01*
X141097618Y-102657533D02*
X141059523Y-102581342D01*
X141059523Y-102581342D02*
X141021428Y-102543247D01*
X141021428Y-102543247D02*
X140945237Y-102505152D01*
X130573809Y-95138485D02*
X130497619Y-95100390D01*
X130497619Y-95100390D02*
X130421428Y-95024200D01*
X130421428Y-95024200D02*
X130307142Y-94909914D01*
X130307142Y-94909914D02*
X130230952Y-94871819D01*
X130230952Y-94871819D02*
X130154761Y-94871819D01*
X130192857Y-95062295D02*
X130116666Y-95024200D01*
X130116666Y-95024200D02*
X130040476Y-94948009D01*
X130040476Y-94948009D02*
X130002380Y-94795628D01*
X130002380Y-94795628D02*
X130002380Y-94528961D01*
X130002380Y-94528961D02*
X130040476Y-94376580D01*
X130040476Y-94376580D02*
X130116666Y-94300390D01*
X130116666Y-94300390D02*
X130192857Y-94262295D01*
X130192857Y-94262295D02*
X130345238Y-94262295D01*
X130345238Y-94262295D02*
X130421428Y-94300390D01*
X130421428Y-94300390D02*
X130497619Y-94376580D01*
X130497619Y-94376580D02*
X130535714Y-94528961D01*
X130535714Y-94528961D02*
X130535714Y-94795628D01*
X130535714Y-94795628D02*
X130497619Y-94948009D01*
X130497619Y-94948009D02*
X130421428Y-95024200D01*
X130421428Y-95024200D02*
X130345238Y-95062295D01*
X130345238Y-95062295D02*
X130192857Y-95062295D01*
X130802380Y-94262295D02*
X131297618Y-94262295D01*
X131297618Y-94262295D02*
X131030952Y-94567057D01*
X131030952Y-94567057D02*
X131145237Y-94567057D01*
X131145237Y-94567057D02*
X131221428Y-94605152D01*
X131221428Y-94605152D02*
X131259523Y-94643247D01*
X131259523Y-94643247D02*
X131297618Y-94719438D01*
X131297618Y-94719438D02*
X131297618Y-94909914D01*
X131297618Y-94909914D02*
X131259523Y-94986104D01*
X131259523Y-94986104D02*
X131221428Y-95024200D01*
X131221428Y-95024200D02*
X131145237Y-95062295D01*
X131145237Y-95062295D02*
X130916666Y-95062295D01*
X130916666Y-95062295D02*
X130840475Y-95024200D01*
X130840475Y-95024200D02*
X130802380Y-94986104D01*
X133116667Y-99651145D02*
X132850000Y-99270192D01*
X132659524Y-99651145D02*
X132659524Y-98851145D01*
X132659524Y-98851145D02*
X132964286Y-98851145D01*
X132964286Y-98851145D02*
X133040476Y-98889240D01*
X133040476Y-98889240D02*
X133078571Y-98927335D01*
X133078571Y-98927335D02*
X133116667Y-99003526D01*
X133116667Y-99003526D02*
X133116667Y-99117811D01*
X133116667Y-99117811D02*
X133078571Y-99194002D01*
X133078571Y-99194002D02*
X133040476Y-99232097D01*
X133040476Y-99232097D02*
X132964286Y-99270192D01*
X132964286Y-99270192D02*
X132659524Y-99270192D01*
X133802381Y-98851145D02*
X133650000Y-98851145D01*
X133650000Y-98851145D02*
X133573809Y-98889240D01*
X133573809Y-98889240D02*
X133535714Y-98927335D01*
X133535714Y-98927335D02*
X133459524Y-99041621D01*
X133459524Y-99041621D02*
X133421428Y-99194002D01*
X133421428Y-99194002D02*
X133421428Y-99498764D01*
X133421428Y-99498764D02*
X133459524Y-99574954D01*
X133459524Y-99574954D02*
X133497619Y-99613050D01*
X133497619Y-99613050D02*
X133573809Y-99651145D01*
X133573809Y-99651145D02*
X133726190Y-99651145D01*
X133726190Y-99651145D02*
X133802381Y-99613050D01*
X133802381Y-99613050D02*
X133840476Y-99574954D01*
X133840476Y-99574954D02*
X133878571Y-99498764D01*
X133878571Y-99498764D02*
X133878571Y-99308288D01*
X133878571Y-99308288D02*
X133840476Y-99232097D01*
X133840476Y-99232097D02*
X133802381Y-99194002D01*
X133802381Y-99194002D02*
X133726190Y-99155907D01*
X133726190Y-99155907D02*
X133573809Y-99155907D01*
X133573809Y-99155907D02*
X133497619Y-99194002D01*
X133497619Y-99194002D02*
X133459524Y-99232097D01*
X133459524Y-99232097D02*
X133421428Y-99308288D01*
X137335714Y-90762295D02*
X137069047Y-90381342D01*
X136878571Y-90762295D02*
X136878571Y-89962295D01*
X136878571Y-89962295D02*
X137183333Y-89962295D01*
X137183333Y-89962295D02*
X137259523Y-90000390D01*
X137259523Y-90000390D02*
X137297618Y-90038485D01*
X137297618Y-90038485D02*
X137335714Y-90114676D01*
X137335714Y-90114676D02*
X137335714Y-90228961D01*
X137335714Y-90228961D02*
X137297618Y-90305152D01*
X137297618Y-90305152D02*
X137259523Y-90343247D01*
X137259523Y-90343247D02*
X137183333Y-90381342D01*
X137183333Y-90381342D02*
X136878571Y-90381342D01*
X138097618Y-90762295D02*
X137640475Y-90762295D01*
X137869047Y-90762295D02*
X137869047Y-89962295D01*
X137869047Y-89962295D02*
X137792856Y-90076580D01*
X137792856Y-90076580D02*
X137716666Y-90152771D01*
X137716666Y-90152771D02*
X137640475Y-90190866D01*
X138783333Y-90228961D02*
X138783333Y-90762295D01*
X138592857Y-89924200D02*
X138402380Y-90495628D01*
X138402380Y-90495628D02*
X138897619Y-90495628D01*
X136258334Y-105956170D02*
X135991667Y-105575217D01*
X135801191Y-105956170D02*
X135801191Y-105156170D01*
X135801191Y-105156170D02*
X136105953Y-105156170D01*
X136105953Y-105156170D02*
X136182143Y-105194265D01*
X136182143Y-105194265D02*
X136220238Y-105232360D01*
X136220238Y-105232360D02*
X136258334Y-105308551D01*
X136258334Y-105308551D02*
X136258334Y-105422836D01*
X136258334Y-105422836D02*
X136220238Y-105499027D01*
X136220238Y-105499027D02*
X136182143Y-105537122D01*
X136182143Y-105537122D02*
X136105953Y-105575217D01*
X136105953Y-105575217D02*
X135801191Y-105575217D01*
X137020238Y-105956170D02*
X136563095Y-105956170D01*
X136791667Y-105956170D02*
X136791667Y-105156170D01*
X136791667Y-105156170D02*
X136715476Y-105270455D01*
X136715476Y-105270455D02*
X136639286Y-105346646D01*
X136639286Y-105346646D02*
X136563095Y-105384741D01*
X133116667Y-95751145D02*
X132850000Y-95370192D01*
X132659524Y-95751145D02*
X132659524Y-94951145D01*
X132659524Y-94951145D02*
X132964286Y-94951145D01*
X132964286Y-94951145D02*
X133040476Y-94989240D01*
X133040476Y-94989240D02*
X133078571Y-95027335D01*
X133078571Y-95027335D02*
X133116667Y-95103526D01*
X133116667Y-95103526D02*
X133116667Y-95217811D01*
X133116667Y-95217811D02*
X133078571Y-95294002D01*
X133078571Y-95294002D02*
X133040476Y-95332097D01*
X133040476Y-95332097D02*
X132964286Y-95370192D01*
X132964286Y-95370192D02*
X132659524Y-95370192D01*
X133573809Y-95294002D02*
X133497619Y-95255907D01*
X133497619Y-95255907D02*
X133459524Y-95217811D01*
X133459524Y-95217811D02*
X133421428Y-95141621D01*
X133421428Y-95141621D02*
X133421428Y-95103526D01*
X133421428Y-95103526D02*
X133459524Y-95027335D01*
X133459524Y-95027335D02*
X133497619Y-94989240D01*
X133497619Y-94989240D02*
X133573809Y-94951145D01*
X133573809Y-94951145D02*
X133726190Y-94951145D01*
X133726190Y-94951145D02*
X133802381Y-94989240D01*
X133802381Y-94989240D02*
X133840476Y-95027335D01*
X133840476Y-95027335D02*
X133878571Y-95103526D01*
X133878571Y-95103526D02*
X133878571Y-95141621D01*
X133878571Y-95141621D02*
X133840476Y-95217811D01*
X133840476Y-95217811D02*
X133802381Y-95255907D01*
X133802381Y-95255907D02*
X133726190Y-95294002D01*
X133726190Y-95294002D02*
X133573809Y-95294002D01*
X133573809Y-95294002D02*
X133497619Y-95332097D01*
X133497619Y-95332097D02*
X133459524Y-95370192D01*
X133459524Y-95370192D02*
X133421428Y-95446383D01*
X133421428Y-95446383D02*
X133421428Y-95598764D01*
X133421428Y-95598764D02*
X133459524Y-95674954D01*
X133459524Y-95674954D02*
X133497619Y-95713050D01*
X133497619Y-95713050D02*
X133573809Y-95751145D01*
X133573809Y-95751145D02*
X133726190Y-95751145D01*
X133726190Y-95751145D02*
X133802381Y-95713050D01*
X133802381Y-95713050D02*
X133840476Y-95674954D01*
X133840476Y-95674954D02*
X133878571Y-95598764D01*
X133878571Y-95598764D02*
X133878571Y-95446383D01*
X133878571Y-95446383D02*
X133840476Y-95370192D01*
X133840476Y-95370192D02*
X133802381Y-95332097D01*
X133802381Y-95332097D02*
X133726190Y-95294002D01*
X137335714Y-94762295D02*
X137069047Y-94381342D01*
X136878571Y-94762295D02*
X136878571Y-93962295D01*
X136878571Y-93962295D02*
X137183333Y-93962295D01*
X137183333Y-93962295D02*
X137259523Y-94000390D01*
X137259523Y-94000390D02*
X137297618Y-94038485D01*
X137297618Y-94038485D02*
X137335714Y-94114676D01*
X137335714Y-94114676D02*
X137335714Y-94228961D01*
X137335714Y-94228961D02*
X137297618Y-94305152D01*
X137297618Y-94305152D02*
X137259523Y-94343247D01*
X137259523Y-94343247D02*
X137183333Y-94381342D01*
X137183333Y-94381342D02*
X136878571Y-94381342D01*
X138097618Y-94762295D02*
X137640475Y-94762295D01*
X137869047Y-94762295D02*
X137869047Y-93962295D01*
X137869047Y-93962295D02*
X137792856Y-94076580D01*
X137792856Y-94076580D02*
X137716666Y-94152771D01*
X137716666Y-94152771D02*
X137640475Y-94190866D01*
X138783333Y-93962295D02*
X138630952Y-93962295D01*
X138630952Y-93962295D02*
X138554761Y-94000390D01*
X138554761Y-94000390D02*
X138516666Y-94038485D01*
X138516666Y-94038485D02*
X138440476Y-94152771D01*
X138440476Y-94152771D02*
X138402380Y-94305152D01*
X138402380Y-94305152D02*
X138402380Y-94609914D01*
X138402380Y-94609914D02*
X138440476Y-94686104D01*
X138440476Y-94686104D02*
X138478571Y-94724200D01*
X138478571Y-94724200D02*
X138554761Y-94762295D01*
X138554761Y-94762295D02*
X138707142Y-94762295D01*
X138707142Y-94762295D02*
X138783333Y-94724200D01*
X138783333Y-94724200D02*
X138821428Y-94686104D01*
X138821428Y-94686104D02*
X138859523Y-94609914D01*
X138859523Y-94609914D02*
X138859523Y-94419438D01*
X138859523Y-94419438D02*
X138821428Y-94343247D01*
X138821428Y-94343247D02*
X138783333Y-94305152D01*
X138783333Y-94305152D02*
X138707142Y-94267057D01*
X138707142Y-94267057D02*
X138554761Y-94267057D01*
X138554761Y-94267057D02*
X138478571Y-94305152D01*
X138478571Y-94305152D02*
X138440476Y-94343247D01*
X138440476Y-94343247D02*
X138402380Y-94419438D01*
X130573809Y-99096318D02*
X130497619Y-99058223D01*
X130497619Y-99058223D02*
X130421428Y-98982033D01*
X130421428Y-98982033D02*
X130307142Y-98867747D01*
X130307142Y-98867747D02*
X130230952Y-98829652D01*
X130230952Y-98829652D02*
X130154761Y-98829652D01*
X130192857Y-99020128D02*
X130116666Y-98982033D01*
X130116666Y-98982033D02*
X130040476Y-98905842D01*
X130040476Y-98905842D02*
X130002380Y-98753461D01*
X130002380Y-98753461D02*
X130002380Y-98486794D01*
X130002380Y-98486794D02*
X130040476Y-98334413D01*
X130040476Y-98334413D02*
X130116666Y-98258223D01*
X130116666Y-98258223D02*
X130192857Y-98220128D01*
X130192857Y-98220128D02*
X130345238Y-98220128D01*
X130345238Y-98220128D02*
X130421428Y-98258223D01*
X130421428Y-98258223D02*
X130497619Y-98334413D01*
X130497619Y-98334413D02*
X130535714Y-98486794D01*
X130535714Y-98486794D02*
X130535714Y-98753461D01*
X130535714Y-98753461D02*
X130497619Y-98905842D01*
X130497619Y-98905842D02*
X130421428Y-98982033D01*
X130421428Y-98982033D02*
X130345238Y-99020128D01*
X130345238Y-99020128D02*
X130192857Y-99020128D01*
X130840475Y-98296318D02*
X130878571Y-98258223D01*
X130878571Y-98258223D02*
X130954761Y-98220128D01*
X130954761Y-98220128D02*
X131145237Y-98220128D01*
X131145237Y-98220128D02*
X131221428Y-98258223D01*
X131221428Y-98258223D02*
X131259523Y-98296318D01*
X131259523Y-98296318D02*
X131297618Y-98372509D01*
X131297618Y-98372509D02*
X131297618Y-98448699D01*
X131297618Y-98448699D02*
X131259523Y-98562985D01*
X131259523Y-98562985D02*
X130802380Y-99020128D01*
X130802380Y-99020128D02*
X131297618Y-99020128D01*
X140373809Y-99056819D02*
X140297619Y-99018724D01*
X140297619Y-99018724D02*
X140221428Y-98942534D01*
X140221428Y-98942534D02*
X140107142Y-98828248D01*
X140107142Y-98828248D02*
X140030952Y-98790153D01*
X140030952Y-98790153D02*
X139954761Y-98790153D01*
X139992857Y-98980629D02*
X139916666Y-98942534D01*
X139916666Y-98942534D02*
X139840476Y-98866343D01*
X139840476Y-98866343D02*
X139802380Y-98713962D01*
X139802380Y-98713962D02*
X139802380Y-98447295D01*
X139802380Y-98447295D02*
X139840476Y-98294914D01*
X139840476Y-98294914D02*
X139916666Y-98218724D01*
X139916666Y-98218724D02*
X139992857Y-98180629D01*
X139992857Y-98180629D02*
X140145238Y-98180629D01*
X140145238Y-98180629D02*
X140221428Y-98218724D01*
X140221428Y-98218724D02*
X140297619Y-98294914D01*
X140297619Y-98294914D02*
X140335714Y-98447295D01*
X140335714Y-98447295D02*
X140335714Y-98713962D01*
X140335714Y-98713962D02*
X140297619Y-98866343D01*
X140297619Y-98866343D02*
X140221428Y-98942534D01*
X140221428Y-98942534D02*
X140145238Y-98980629D01*
X140145238Y-98980629D02*
X139992857Y-98980629D01*
X140602380Y-98180629D02*
X141135714Y-98180629D01*
X141135714Y-98180629D02*
X140792856Y-98980629D01*
X137335714Y-98662295D02*
X137069047Y-98281342D01*
X136878571Y-98662295D02*
X136878571Y-97862295D01*
X136878571Y-97862295D02*
X137183333Y-97862295D01*
X137183333Y-97862295D02*
X137259523Y-97900390D01*
X137259523Y-97900390D02*
X137297618Y-97938485D01*
X137297618Y-97938485D02*
X137335714Y-98014676D01*
X137335714Y-98014676D02*
X137335714Y-98128961D01*
X137335714Y-98128961D02*
X137297618Y-98205152D01*
X137297618Y-98205152D02*
X137259523Y-98243247D01*
X137259523Y-98243247D02*
X137183333Y-98281342D01*
X137183333Y-98281342D02*
X136878571Y-98281342D01*
X138097618Y-98662295D02*
X137640475Y-98662295D01*
X137869047Y-98662295D02*
X137869047Y-97862295D01*
X137869047Y-97862295D02*
X137792856Y-97976580D01*
X137792856Y-97976580D02*
X137716666Y-98052771D01*
X137716666Y-98052771D02*
X137640475Y-98090866D01*
X138554761Y-98205152D02*
X138478571Y-98167057D01*
X138478571Y-98167057D02*
X138440476Y-98128961D01*
X138440476Y-98128961D02*
X138402380Y-98052771D01*
X138402380Y-98052771D02*
X138402380Y-98014676D01*
X138402380Y-98014676D02*
X138440476Y-97938485D01*
X138440476Y-97938485D02*
X138478571Y-97900390D01*
X138478571Y-97900390D02*
X138554761Y-97862295D01*
X138554761Y-97862295D02*
X138707142Y-97862295D01*
X138707142Y-97862295D02*
X138783333Y-97900390D01*
X138783333Y-97900390D02*
X138821428Y-97938485D01*
X138821428Y-97938485D02*
X138859523Y-98014676D01*
X138859523Y-98014676D02*
X138859523Y-98052771D01*
X138859523Y-98052771D02*
X138821428Y-98128961D01*
X138821428Y-98128961D02*
X138783333Y-98167057D01*
X138783333Y-98167057D02*
X138707142Y-98205152D01*
X138707142Y-98205152D02*
X138554761Y-98205152D01*
X138554761Y-98205152D02*
X138478571Y-98243247D01*
X138478571Y-98243247D02*
X138440476Y-98281342D01*
X138440476Y-98281342D02*
X138402380Y-98357533D01*
X138402380Y-98357533D02*
X138402380Y-98509914D01*
X138402380Y-98509914D02*
X138440476Y-98586104D01*
X138440476Y-98586104D02*
X138478571Y-98624200D01*
X138478571Y-98624200D02*
X138554761Y-98662295D01*
X138554761Y-98662295D02*
X138707142Y-98662295D01*
X138707142Y-98662295D02*
X138783333Y-98624200D01*
X138783333Y-98624200D02*
X138821428Y-98586104D01*
X138821428Y-98586104D02*
X138859523Y-98509914D01*
X138859523Y-98509914D02*
X138859523Y-98357533D01*
X138859523Y-98357533D02*
X138821428Y-98281342D01*
X138821428Y-98281342D02*
X138783333Y-98243247D01*
X138783333Y-98243247D02*
X138707142Y-98205152D01*
X132735714Y-91851145D02*
X132469047Y-91470192D01*
X132278571Y-91851145D02*
X132278571Y-91051145D01*
X132278571Y-91051145D02*
X132583333Y-91051145D01*
X132583333Y-91051145D02*
X132659523Y-91089240D01*
X132659523Y-91089240D02*
X132697618Y-91127335D01*
X132697618Y-91127335D02*
X132735714Y-91203526D01*
X132735714Y-91203526D02*
X132735714Y-91317811D01*
X132735714Y-91317811D02*
X132697618Y-91394002D01*
X132697618Y-91394002D02*
X132659523Y-91432097D01*
X132659523Y-91432097D02*
X132583333Y-91470192D01*
X132583333Y-91470192D02*
X132278571Y-91470192D01*
X133497618Y-91851145D02*
X133040475Y-91851145D01*
X133269047Y-91851145D02*
X133269047Y-91051145D01*
X133269047Y-91051145D02*
X133192856Y-91165430D01*
X133192856Y-91165430D02*
X133116666Y-91241621D01*
X133116666Y-91241621D02*
X133040475Y-91279716D01*
X133992857Y-91051145D02*
X134069047Y-91051145D01*
X134069047Y-91051145D02*
X134145238Y-91089240D01*
X134145238Y-91089240D02*
X134183333Y-91127335D01*
X134183333Y-91127335D02*
X134221428Y-91203526D01*
X134221428Y-91203526D02*
X134259523Y-91355907D01*
X134259523Y-91355907D02*
X134259523Y-91546383D01*
X134259523Y-91546383D02*
X134221428Y-91698764D01*
X134221428Y-91698764D02*
X134183333Y-91774954D01*
X134183333Y-91774954D02*
X134145238Y-91813050D01*
X134145238Y-91813050D02*
X134069047Y-91851145D01*
X134069047Y-91851145D02*
X133992857Y-91851145D01*
X133992857Y-91851145D02*
X133916666Y-91813050D01*
X133916666Y-91813050D02*
X133878571Y-91774954D01*
X133878571Y-91774954D02*
X133840476Y-91698764D01*
X133840476Y-91698764D02*
X133802380Y-91546383D01*
X133802380Y-91546383D02*
X133802380Y-91355907D01*
X133802380Y-91355907D02*
X133840476Y-91203526D01*
X133840476Y-91203526D02*
X133878571Y-91127335D01*
X133878571Y-91127335D02*
X133916666Y-91089240D01*
X133916666Y-91089240D02*
X133992857Y-91051145D01*
X135541667Y-77436104D02*
X135503571Y-77474200D01*
X135503571Y-77474200D02*
X135389286Y-77512295D01*
X135389286Y-77512295D02*
X135313095Y-77512295D01*
X135313095Y-77512295D02*
X135198809Y-77474200D01*
X135198809Y-77474200D02*
X135122619Y-77398009D01*
X135122619Y-77398009D02*
X135084524Y-77321819D01*
X135084524Y-77321819D02*
X135046428Y-77169438D01*
X135046428Y-77169438D02*
X135046428Y-77055152D01*
X135046428Y-77055152D02*
X135084524Y-76902771D01*
X135084524Y-76902771D02*
X135122619Y-76826580D01*
X135122619Y-76826580D02*
X135198809Y-76750390D01*
X135198809Y-76750390D02*
X135313095Y-76712295D01*
X135313095Y-76712295D02*
X135389286Y-76712295D01*
X135389286Y-76712295D02*
X135503571Y-76750390D01*
X135503571Y-76750390D02*
X135541667Y-76788485D01*
X135808333Y-76712295D02*
X136303571Y-76712295D01*
X136303571Y-76712295D02*
X136036905Y-77017057D01*
X136036905Y-77017057D02*
X136151190Y-77017057D01*
X136151190Y-77017057D02*
X136227381Y-77055152D01*
X136227381Y-77055152D02*
X136265476Y-77093247D01*
X136265476Y-77093247D02*
X136303571Y-77169438D01*
X136303571Y-77169438D02*
X136303571Y-77359914D01*
X136303571Y-77359914D02*
X136265476Y-77436104D01*
X136265476Y-77436104D02*
X136227381Y-77474200D01*
X136227381Y-77474200D02*
X136151190Y-77512295D01*
X136151190Y-77512295D02*
X135922619Y-77512295D01*
X135922619Y-77512295D02*
X135846428Y-77474200D01*
X135846428Y-77474200D02*
X135808333Y-77436104D01*
X137016667Y-77436104D02*
X136978571Y-77474200D01*
X136978571Y-77474200D02*
X136864286Y-77512295D01*
X136864286Y-77512295D02*
X136788095Y-77512295D01*
X136788095Y-77512295D02*
X136673809Y-77474200D01*
X136673809Y-77474200D02*
X136597619Y-77398009D01*
X136597619Y-77398009D02*
X136559524Y-77321819D01*
X136559524Y-77321819D02*
X136521428Y-77169438D01*
X136521428Y-77169438D02*
X136521428Y-77055152D01*
X136521428Y-77055152D02*
X136559524Y-76902771D01*
X136559524Y-76902771D02*
X136597619Y-76826580D01*
X136597619Y-76826580D02*
X136673809Y-76750390D01*
X136673809Y-76750390D02*
X136788095Y-76712295D01*
X136788095Y-76712295D02*
X136864286Y-76712295D01*
X136864286Y-76712295D02*
X136978571Y-76750390D01*
X136978571Y-76750390D02*
X137016667Y-76788485D01*
X137321428Y-76788485D02*
X137359524Y-76750390D01*
X137359524Y-76750390D02*
X137435714Y-76712295D01*
X137435714Y-76712295D02*
X137626190Y-76712295D01*
X137626190Y-76712295D02*
X137702381Y-76750390D01*
X137702381Y-76750390D02*
X137740476Y-76788485D01*
X137740476Y-76788485D02*
X137778571Y-76864676D01*
X137778571Y-76864676D02*
X137778571Y-76940866D01*
X137778571Y-76940866D02*
X137740476Y-77055152D01*
X137740476Y-77055152D02*
X137283333Y-77512295D01*
X137283333Y-77512295D02*
X137778571Y-77512295D01*
X134775000Y-105956170D02*
X134508333Y-105575217D01*
X134317857Y-105956170D02*
X134317857Y-105156170D01*
X134317857Y-105156170D02*
X134622619Y-105156170D01*
X134622619Y-105156170D02*
X134698809Y-105194265D01*
X134698809Y-105194265D02*
X134736904Y-105232360D01*
X134736904Y-105232360D02*
X134775000Y-105308551D01*
X134775000Y-105308551D02*
X134775000Y-105422836D01*
X134775000Y-105422836D02*
X134736904Y-105499027D01*
X134736904Y-105499027D02*
X134698809Y-105537122D01*
X134698809Y-105537122D02*
X134622619Y-105575217D01*
X134622619Y-105575217D02*
X134317857Y-105575217D01*
X135460714Y-105422836D02*
X135460714Y-105956170D01*
X135270238Y-105118075D02*
X135079761Y-105689503D01*
X135079761Y-105689503D02*
X135575000Y-105689503D01*
X134697619Y-84462295D02*
X134316667Y-84462295D01*
X134316667Y-84462295D02*
X134316667Y-83662295D01*
X134964286Y-84462295D02*
X134964286Y-83662295D01*
X134964286Y-83662295D02*
X135154762Y-83662295D01*
X135154762Y-83662295D02*
X135269048Y-83700390D01*
X135269048Y-83700390D02*
X135345238Y-83776580D01*
X135345238Y-83776580D02*
X135383333Y-83852771D01*
X135383333Y-83852771D02*
X135421429Y-84005152D01*
X135421429Y-84005152D02*
X135421429Y-84119438D01*
X135421429Y-84119438D02*
X135383333Y-84271819D01*
X135383333Y-84271819D02*
X135345238Y-84348009D01*
X135345238Y-84348009D02*
X135269048Y-84424200D01*
X135269048Y-84424200D02*
X135154762Y-84462295D01*
X135154762Y-84462295D02*
X134964286Y-84462295D01*
X135916667Y-83662295D02*
X136069048Y-83662295D01*
X136069048Y-83662295D02*
X136145238Y-83700390D01*
X136145238Y-83700390D02*
X136221429Y-83776580D01*
X136221429Y-83776580D02*
X136259524Y-83928961D01*
X136259524Y-83928961D02*
X136259524Y-84195628D01*
X136259524Y-84195628D02*
X136221429Y-84348009D01*
X136221429Y-84348009D02*
X136145238Y-84424200D01*
X136145238Y-84424200D02*
X136069048Y-84462295D01*
X136069048Y-84462295D02*
X135916667Y-84462295D01*
X135916667Y-84462295D02*
X135840476Y-84424200D01*
X135840476Y-84424200D02*
X135764286Y-84348009D01*
X135764286Y-84348009D02*
X135726190Y-84195628D01*
X135726190Y-84195628D02*
X135726190Y-83928961D01*
X135726190Y-83928961D02*
X135764286Y-83776580D01*
X135764286Y-83776580D02*
X135840476Y-83700390D01*
X135840476Y-83700390D02*
X135916667Y-83662295D01*
X137021428Y-84462295D02*
X136564285Y-84462295D01*
X136792857Y-84462295D02*
X136792857Y-83662295D01*
X136792857Y-83662295D02*
X136716666Y-83776580D01*
X136716666Y-83776580D02*
X136640476Y-83852771D01*
X136640476Y-83852771D02*
X136564285Y-83890866D01*
X133116667Y-98637428D02*
X132850000Y-98256475D01*
X132659524Y-98637428D02*
X132659524Y-97837428D01*
X132659524Y-97837428D02*
X132964286Y-97837428D01*
X132964286Y-97837428D02*
X133040476Y-97875523D01*
X133040476Y-97875523D02*
X133078571Y-97913618D01*
X133078571Y-97913618D02*
X133116667Y-97989809D01*
X133116667Y-97989809D02*
X133116667Y-98104094D01*
X133116667Y-98104094D02*
X133078571Y-98180285D01*
X133078571Y-98180285D02*
X133040476Y-98218380D01*
X133040476Y-98218380D02*
X132964286Y-98256475D01*
X132964286Y-98256475D02*
X132659524Y-98256475D01*
X133383333Y-97837428D02*
X133916667Y-97837428D01*
X133916667Y-97837428D02*
X133573809Y-98637428D01*
X137335714Y-102562295D02*
X137069047Y-102181342D01*
X136878571Y-102562295D02*
X136878571Y-101762295D01*
X136878571Y-101762295D02*
X137183333Y-101762295D01*
X137183333Y-101762295D02*
X137259523Y-101800390D01*
X137259523Y-101800390D02*
X137297618Y-101838485D01*
X137297618Y-101838485D02*
X137335714Y-101914676D01*
X137335714Y-101914676D02*
X137335714Y-102028961D01*
X137335714Y-102028961D02*
X137297618Y-102105152D01*
X137297618Y-102105152D02*
X137259523Y-102143247D01*
X137259523Y-102143247D02*
X137183333Y-102181342D01*
X137183333Y-102181342D02*
X136878571Y-102181342D01*
X137640475Y-101838485D02*
X137678571Y-101800390D01*
X137678571Y-101800390D02*
X137754761Y-101762295D01*
X137754761Y-101762295D02*
X137945237Y-101762295D01*
X137945237Y-101762295D02*
X138021428Y-101800390D01*
X138021428Y-101800390D02*
X138059523Y-101838485D01*
X138059523Y-101838485D02*
X138097618Y-101914676D01*
X138097618Y-101914676D02*
X138097618Y-101990866D01*
X138097618Y-101990866D02*
X138059523Y-102105152D01*
X138059523Y-102105152D02*
X137602380Y-102562295D01*
X137602380Y-102562295D02*
X138097618Y-102562295D01*
X138592857Y-101762295D02*
X138669047Y-101762295D01*
X138669047Y-101762295D02*
X138745238Y-101800390D01*
X138745238Y-101800390D02*
X138783333Y-101838485D01*
X138783333Y-101838485D02*
X138821428Y-101914676D01*
X138821428Y-101914676D02*
X138859523Y-102067057D01*
X138859523Y-102067057D02*
X138859523Y-102257533D01*
X138859523Y-102257533D02*
X138821428Y-102409914D01*
X138821428Y-102409914D02*
X138783333Y-102486104D01*
X138783333Y-102486104D02*
X138745238Y-102524200D01*
X138745238Y-102524200D02*
X138669047Y-102562295D01*
X138669047Y-102562295D02*
X138592857Y-102562295D01*
X138592857Y-102562295D02*
X138516666Y-102524200D01*
X138516666Y-102524200D02*
X138478571Y-102486104D01*
X138478571Y-102486104D02*
X138440476Y-102409914D01*
X138440476Y-102409914D02*
X138402380Y-102257533D01*
X138402380Y-102257533D02*
X138402380Y-102067057D01*
X138402380Y-102067057D02*
X138440476Y-101914676D01*
X138440476Y-101914676D02*
X138478571Y-101838485D01*
X138478571Y-101838485D02*
X138516666Y-101800390D01*
X138516666Y-101800390D02*
X138592857Y-101762295D01*
D11*
X133291667Y-105963595D02*
X133025000Y-105582642D01*
X132834524Y-105963595D02*
X132834524Y-105163595D01*
X132834524Y-105163595D02*
X133139286Y-105163595D01*
X133139286Y-105163595D02*
X133215476Y-105201690D01*
X133215476Y-105201690D02*
X133253571Y-105239785D01*
X133253571Y-105239785D02*
X133291667Y-105315976D01*
X133291667Y-105315976D02*
X133291667Y-105430261D01*
X133291667Y-105430261D02*
X133253571Y-105506452D01*
X133253571Y-105506452D02*
X133215476Y-105544547D01*
X133215476Y-105544547D02*
X133139286Y-105582642D01*
X133139286Y-105582642D02*
X132834524Y-105582642D01*
X133558333Y-105163595D02*
X134053571Y-105163595D01*
X134053571Y-105163595D02*
X133786905Y-105468357D01*
X133786905Y-105468357D02*
X133901190Y-105468357D01*
X133901190Y-105468357D02*
X133977381Y-105506452D01*
X133977381Y-105506452D02*
X134015476Y-105544547D01*
X134015476Y-105544547D02*
X134053571Y-105620738D01*
X134053571Y-105620738D02*
X134053571Y-105811214D01*
X134053571Y-105811214D02*
X134015476Y-105887404D01*
X134015476Y-105887404D02*
X133977381Y-105925500D01*
X133977381Y-105925500D02*
X133901190Y-105963595D01*
X133901190Y-105963595D02*
X133672619Y-105963595D01*
X133672619Y-105963595D02*
X133596428Y-105925500D01*
X133596428Y-105925500D02*
X133558333Y-105887404D01*
D10*
X137335714Y-91741011D02*
X137069047Y-91360058D01*
X136878571Y-91741011D02*
X136878571Y-90941011D01*
X136878571Y-90941011D02*
X137183333Y-90941011D01*
X137183333Y-90941011D02*
X137259523Y-90979106D01*
X137259523Y-90979106D02*
X137297618Y-91017201D01*
X137297618Y-91017201D02*
X137335714Y-91093392D01*
X137335714Y-91093392D02*
X137335714Y-91207677D01*
X137335714Y-91207677D02*
X137297618Y-91283868D01*
X137297618Y-91283868D02*
X137259523Y-91321963D01*
X137259523Y-91321963D02*
X137183333Y-91360058D01*
X137183333Y-91360058D02*
X136878571Y-91360058D01*
X138097618Y-91741011D02*
X137640475Y-91741011D01*
X137869047Y-91741011D02*
X137869047Y-90941011D01*
X137869047Y-90941011D02*
X137792856Y-91055296D01*
X137792856Y-91055296D02*
X137716666Y-91131487D01*
X137716666Y-91131487D02*
X137640475Y-91169582D01*
X138821428Y-90941011D02*
X138440476Y-90941011D01*
X138440476Y-90941011D02*
X138402380Y-91321963D01*
X138402380Y-91321963D02*
X138440476Y-91283868D01*
X138440476Y-91283868D02*
X138516666Y-91245773D01*
X138516666Y-91245773D02*
X138707142Y-91245773D01*
X138707142Y-91245773D02*
X138783333Y-91283868D01*
X138783333Y-91283868D02*
X138821428Y-91321963D01*
X138821428Y-91321963D02*
X138859523Y-91398154D01*
X138859523Y-91398154D02*
X138859523Y-91588630D01*
X138859523Y-91588630D02*
X138821428Y-91664820D01*
X138821428Y-91664820D02*
X138783333Y-91702916D01*
X138783333Y-91702916D02*
X138707142Y-91741011D01*
X138707142Y-91741011D02*
X138516666Y-91741011D01*
X138516666Y-91741011D02*
X138440476Y-91702916D01*
X138440476Y-91702916D02*
X138402380Y-91664820D01*
X140373809Y-95138485D02*
X140297619Y-95100390D01*
X140297619Y-95100390D02*
X140221428Y-95024200D01*
X140221428Y-95024200D02*
X140107142Y-94909914D01*
X140107142Y-94909914D02*
X140030952Y-94871819D01*
X140030952Y-94871819D02*
X139954761Y-94871819D01*
X139992857Y-95062295D02*
X139916666Y-95024200D01*
X139916666Y-95024200D02*
X139840476Y-94948009D01*
X139840476Y-94948009D02*
X139802380Y-94795628D01*
X139802380Y-94795628D02*
X139802380Y-94528961D01*
X139802380Y-94528961D02*
X139840476Y-94376580D01*
X139840476Y-94376580D02*
X139916666Y-94300390D01*
X139916666Y-94300390D02*
X139992857Y-94262295D01*
X139992857Y-94262295D02*
X140145238Y-94262295D01*
X140145238Y-94262295D02*
X140221428Y-94300390D01*
X140221428Y-94300390D02*
X140297619Y-94376580D01*
X140297619Y-94376580D02*
X140335714Y-94528961D01*
X140335714Y-94528961D02*
X140335714Y-94795628D01*
X140335714Y-94795628D02*
X140297619Y-94948009D01*
X140297619Y-94948009D02*
X140221428Y-95024200D01*
X140221428Y-95024200D02*
X140145238Y-95062295D01*
X140145238Y-95062295D02*
X139992857Y-95062295D01*
X141021428Y-94262295D02*
X140869047Y-94262295D01*
X140869047Y-94262295D02*
X140792856Y-94300390D01*
X140792856Y-94300390D02*
X140754761Y-94338485D01*
X140754761Y-94338485D02*
X140678571Y-94452771D01*
X140678571Y-94452771D02*
X140640475Y-94605152D01*
X140640475Y-94605152D02*
X140640475Y-94909914D01*
X140640475Y-94909914D02*
X140678571Y-94986104D01*
X140678571Y-94986104D02*
X140716666Y-95024200D01*
X140716666Y-95024200D02*
X140792856Y-95062295D01*
X140792856Y-95062295D02*
X140945237Y-95062295D01*
X140945237Y-95062295D02*
X141021428Y-95024200D01*
X141021428Y-95024200D02*
X141059523Y-94986104D01*
X141059523Y-94986104D02*
X141097618Y-94909914D01*
X141097618Y-94909914D02*
X141097618Y-94719438D01*
X141097618Y-94719438D02*
X141059523Y-94643247D01*
X141059523Y-94643247D02*
X141021428Y-94605152D01*
X141021428Y-94605152D02*
X140945237Y-94567057D01*
X140945237Y-94567057D02*
X140792856Y-94567057D01*
X140792856Y-94567057D02*
X140716666Y-94605152D01*
X140716666Y-94605152D02*
X140678571Y-94643247D01*
X140678571Y-94643247D02*
X140640475Y-94719438D01*
X132735714Y-90862295D02*
X132469047Y-90481342D01*
X132278571Y-90862295D02*
X132278571Y-90062295D01*
X132278571Y-90062295D02*
X132583333Y-90062295D01*
X132583333Y-90062295D02*
X132659523Y-90100390D01*
X132659523Y-90100390D02*
X132697618Y-90138485D01*
X132697618Y-90138485D02*
X132735714Y-90214676D01*
X132735714Y-90214676D02*
X132735714Y-90328961D01*
X132735714Y-90328961D02*
X132697618Y-90405152D01*
X132697618Y-90405152D02*
X132659523Y-90443247D01*
X132659523Y-90443247D02*
X132583333Y-90481342D01*
X132583333Y-90481342D02*
X132278571Y-90481342D01*
X133497618Y-90862295D02*
X133040475Y-90862295D01*
X133269047Y-90862295D02*
X133269047Y-90062295D01*
X133269047Y-90062295D02*
X133192856Y-90176580D01*
X133192856Y-90176580D02*
X133116666Y-90252771D01*
X133116666Y-90252771D02*
X133040475Y-90290866D01*
X134259523Y-90862295D02*
X133802380Y-90862295D01*
X134030952Y-90862295D02*
X134030952Y-90062295D01*
X134030952Y-90062295D02*
X133954761Y-90176580D01*
X133954761Y-90176580D02*
X133878571Y-90252771D01*
X133878571Y-90252771D02*
X133802380Y-90290866D01*
X130573809Y-102978485D02*
X130497619Y-102940390D01*
X130497619Y-102940390D02*
X130421428Y-102864200D01*
X130421428Y-102864200D02*
X130307142Y-102749914D01*
X130307142Y-102749914D02*
X130230952Y-102711819D01*
X130230952Y-102711819D02*
X130154761Y-102711819D01*
X130192857Y-102902295D02*
X130116666Y-102864200D01*
X130116666Y-102864200D02*
X130040476Y-102788009D01*
X130040476Y-102788009D02*
X130002380Y-102635628D01*
X130002380Y-102635628D02*
X130002380Y-102368961D01*
X130002380Y-102368961D02*
X130040476Y-102216580D01*
X130040476Y-102216580D02*
X130116666Y-102140390D01*
X130116666Y-102140390D02*
X130192857Y-102102295D01*
X130192857Y-102102295D02*
X130345238Y-102102295D01*
X130345238Y-102102295D02*
X130421428Y-102140390D01*
X130421428Y-102140390D02*
X130497619Y-102216580D01*
X130497619Y-102216580D02*
X130535714Y-102368961D01*
X130535714Y-102368961D02*
X130535714Y-102635628D01*
X130535714Y-102635628D02*
X130497619Y-102788009D01*
X130497619Y-102788009D02*
X130421428Y-102864200D01*
X130421428Y-102864200D02*
X130345238Y-102902295D01*
X130345238Y-102902295D02*
X130192857Y-102902295D01*
X131297618Y-102902295D02*
X130840475Y-102902295D01*
X131069047Y-102902295D02*
X131069047Y-102102295D01*
X131069047Y-102102295D02*
X130992856Y-102216580D01*
X130992856Y-102216580D02*
X130916666Y-102292771D01*
X130916666Y-102292771D02*
X130840475Y-102330866D01*
X135383333Y-108787295D02*
X135383333Y-109358723D01*
X135383333Y-109358723D02*
X135345238Y-109473009D01*
X135345238Y-109473009D02*
X135269047Y-109549200D01*
X135269047Y-109549200D02*
X135154762Y-109587295D01*
X135154762Y-109587295D02*
X135078571Y-109587295D01*
X135688095Y-108787295D02*
X136183333Y-108787295D01*
X136183333Y-108787295D02*
X135916667Y-109092057D01*
X135916667Y-109092057D02*
X136030952Y-109092057D01*
X136030952Y-109092057D02*
X136107143Y-109130152D01*
X136107143Y-109130152D02*
X136145238Y-109168247D01*
X136145238Y-109168247D02*
X136183333Y-109244438D01*
X136183333Y-109244438D02*
X136183333Y-109434914D01*
X136183333Y-109434914D02*
X136145238Y-109511104D01*
X136145238Y-109511104D02*
X136107143Y-109549200D01*
X136107143Y-109549200D02*
X136030952Y-109587295D01*
X136030952Y-109587295D02*
X135802381Y-109587295D01*
X135802381Y-109587295D02*
X135726190Y-109549200D01*
X135726190Y-109549200D02*
X135688095Y-109511104D01*
X137335714Y-95800678D02*
X137069047Y-95419725D01*
X136878571Y-95800678D02*
X136878571Y-95000678D01*
X136878571Y-95000678D02*
X137183333Y-95000678D01*
X137183333Y-95000678D02*
X137259523Y-95038773D01*
X137259523Y-95038773D02*
X137297618Y-95076868D01*
X137297618Y-95076868D02*
X137335714Y-95153059D01*
X137335714Y-95153059D02*
X137335714Y-95267344D01*
X137335714Y-95267344D02*
X137297618Y-95343535D01*
X137297618Y-95343535D02*
X137259523Y-95381630D01*
X137259523Y-95381630D02*
X137183333Y-95419725D01*
X137183333Y-95419725D02*
X136878571Y-95419725D01*
X138097618Y-95800678D02*
X137640475Y-95800678D01*
X137869047Y-95800678D02*
X137869047Y-95000678D01*
X137869047Y-95000678D02*
X137792856Y-95114963D01*
X137792856Y-95114963D02*
X137716666Y-95191154D01*
X137716666Y-95191154D02*
X137640475Y-95229249D01*
X138364285Y-95000678D02*
X138897619Y-95000678D01*
X138897619Y-95000678D02*
X138554761Y-95800678D01*
X137335714Y-99651145D02*
X137069047Y-99270192D01*
X136878571Y-99651145D02*
X136878571Y-98851145D01*
X136878571Y-98851145D02*
X137183333Y-98851145D01*
X137183333Y-98851145D02*
X137259523Y-98889240D01*
X137259523Y-98889240D02*
X137297618Y-98927335D01*
X137297618Y-98927335D02*
X137335714Y-99003526D01*
X137335714Y-99003526D02*
X137335714Y-99117811D01*
X137335714Y-99117811D02*
X137297618Y-99194002D01*
X137297618Y-99194002D02*
X137259523Y-99232097D01*
X137259523Y-99232097D02*
X137183333Y-99270192D01*
X137183333Y-99270192D02*
X136878571Y-99270192D01*
X138097618Y-99651145D02*
X137640475Y-99651145D01*
X137869047Y-99651145D02*
X137869047Y-98851145D01*
X137869047Y-98851145D02*
X137792856Y-98965430D01*
X137792856Y-98965430D02*
X137716666Y-99041621D01*
X137716666Y-99041621D02*
X137640475Y-99079716D01*
X138478571Y-99651145D02*
X138630952Y-99651145D01*
X138630952Y-99651145D02*
X138707142Y-99613050D01*
X138707142Y-99613050D02*
X138745238Y-99574954D01*
X138745238Y-99574954D02*
X138821428Y-99460669D01*
X138821428Y-99460669D02*
X138859523Y-99308288D01*
X138859523Y-99308288D02*
X138859523Y-99003526D01*
X138859523Y-99003526D02*
X138821428Y-98927335D01*
X138821428Y-98927335D02*
X138783333Y-98889240D01*
X138783333Y-98889240D02*
X138707142Y-98851145D01*
X138707142Y-98851145D02*
X138554761Y-98851145D01*
X138554761Y-98851145D02*
X138478571Y-98889240D01*
X138478571Y-98889240D02*
X138440476Y-98927335D01*
X138440476Y-98927335D02*
X138402380Y-99003526D01*
X138402380Y-99003526D02*
X138402380Y-99194002D01*
X138402380Y-99194002D02*
X138440476Y-99270192D01*
X138440476Y-99270192D02*
X138478571Y-99308288D01*
X138478571Y-99308288D02*
X138554761Y-99346383D01*
X138554761Y-99346383D02*
X138707142Y-99346383D01*
X138707142Y-99346383D02*
X138783333Y-99308288D01*
X138783333Y-99308288D02*
X138821428Y-99270192D01*
X138821428Y-99270192D02*
X138859523Y-99194002D01*
X140373809Y-91238485D02*
X140297619Y-91200390D01*
X140297619Y-91200390D02*
X140221428Y-91124200D01*
X140221428Y-91124200D02*
X140107142Y-91009914D01*
X140107142Y-91009914D02*
X140030952Y-90971819D01*
X140030952Y-90971819D02*
X139954761Y-90971819D01*
X139992857Y-91162295D02*
X139916666Y-91124200D01*
X139916666Y-91124200D02*
X139840476Y-91048009D01*
X139840476Y-91048009D02*
X139802380Y-90895628D01*
X139802380Y-90895628D02*
X139802380Y-90628961D01*
X139802380Y-90628961D02*
X139840476Y-90476580D01*
X139840476Y-90476580D02*
X139916666Y-90400390D01*
X139916666Y-90400390D02*
X139992857Y-90362295D01*
X139992857Y-90362295D02*
X140145238Y-90362295D01*
X140145238Y-90362295D02*
X140221428Y-90400390D01*
X140221428Y-90400390D02*
X140297619Y-90476580D01*
X140297619Y-90476580D02*
X140335714Y-90628961D01*
X140335714Y-90628961D02*
X140335714Y-90895628D01*
X140335714Y-90895628D02*
X140297619Y-91048009D01*
X140297619Y-91048009D02*
X140221428Y-91124200D01*
X140221428Y-91124200D02*
X140145238Y-91162295D01*
X140145238Y-91162295D02*
X139992857Y-91162295D01*
X141059523Y-90362295D02*
X140678571Y-90362295D01*
X140678571Y-90362295D02*
X140640475Y-90743247D01*
X140640475Y-90743247D02*
X140678571Y-90705152D01*
X140678571Y-90705152D02*
X140754761Y-90667057D01*
X140754761Y-90667057D02*
X140945237Y-90667057D01*
X140945237Y-90667057D02*
X141021428Y-90705152D01*
X141021428Y-90705152D02*
X141059523Y-90743247D01*
X141059523Y-90743247D02*
X141097618Y-90819438D01*
X141097618Y-90819438D02*
X141097618Y-91009914D01*
X141097618Y-91009914D02*
X141059523Y-91086104D01*
X141059523Y-91086104D02*
X141021428Y-91124200D01*
X141021428Y-91124200D02*
X140945237Y-91162295D01*
X140945237Y-91162295D02*
X140754761Y-91162295D01*
X140754761Y-91162295D02*
X140678571Y-91124200D01*
X140678571Y-91124200D02*
X140640475Y-91086104D01*
X133116667Y-102562295D02*
X132850000Y-102181342D01*
X132659524Y-102562295D02*
X132659524Y-101762295D01*
X132659524Y-101762295D02*
X132964286Y-101762295D01*
X132964286Y-101762295D02*
X133040476Y-101800390D01*
X133040476Y-101800390D02*
X133078571Y-101838485D01*
X133078571Y-101838485D02*
X133116667Y-101914676D01*
X133116667Y-101914676D02*
X133116667Y-102028961D01*
X133116667Y-102028961D02*
X133078571Y-102105152D01*
X133078571Y-102105152D02*
X133040476Y-102143247D01*
X133040476Y-102143247D02*
X132964286Y-102181342D01*
X132964286Y-102181342D02*
X132659524Y-102181342D01*
X133840476Y-101762295D02*
X133459524Y-101762295D01*
X133459524Y-101762295D02*
X133421428Y-102143247D01*
X133421428Y-102143247D02*
X133459524Y-102105152D01*
X133459524Y-102105152D02*
X133535714Y-102067057D01*
X133535714Y-102067057D02*
X133726190Y-102067057D01*
X133726190Y-102067057D02*
X133802381Y-102105152D01*
X133802381Y-102105152D02*
X133840476Y-102143247D01*
X133840476Y-102143247D02*
X133878571Y-102219438D01*
X133878571Y-102219438D02*
X133878571Y-102409914D01*
X133878571Y-102409914D02*
X133840476Y-102486104D01*
X133840476Y-102486104D02*
X133802381Y-102524200D01*
X133802381Y-102524200D02*
X133726190Y-102562295D01*
X133726190Y-102562295D02*
X133535714Y-102562295D01*
X133535714Y-102562295D02*
X133459524Y-102524200D01*
X133459524Y-102524200D02*
X133421428Y-102486104D01*
X137335714Y-87851145D02*
X137069047Y-87470192D01*
X136878571Y-87851145D02*
X136878571Y-87051145D01*
X136878571Y-87051145D02*
X137183333Y-87051145D01*
X137183333Y-87051145D02*
X137259523Y-87089240D01*
X137259523Y-87089240D02*
X137297618Y-87127335D01*
X137297618Y-87127335D02*
X137335714Y-87203526D01*
X137335714Y-87203526D02*
X137335714Y-87317811D01*
X137335714Y-87317811D02*
X137297618Y-87394002D01*
X137297618Y-87394002D02*
X137259523Y-87432097D01*
X137259523Y-87432097D02*
X137183333Y-87470192D01*
X137183333Y-87470192D02*
X136878571Y-87470192D01*
X138097618Y-87851145D02*
X137640475Y-87851145D01*
X137869047Y-87851145D02*
X137869047Y-87051145D01*
X137869047Y-87051145D02*
X137792856Y-87165430D01*
X137792856Y-87165430D02*
X137716666Y-87241621D01*
X137716666Y-87241621D02*
X137640475Y-87279716D01*
X138364285Y-87051145D02*
X138859523Y-87051145D01*
X138859523Y-87051145D02*
X138592857Y-87355907D01*
X138592857Y-87355907D02*
X138707142Y-87355907D01*
X138707142Y-87355907D02*
X138783333Y-87394002D01*
X138783333Y-87394002D02*
X138821428Y-87432097D01*
X138821428Y-87432097D02*
X138859523Y-87508288D01*
X138859523Y-87508288D02*
X138859523Y-87698764D01*
X138859523Y-87698764D02*
X138821428Y-87774954D01*
X138821428Y-87774954D02*
X138783333Y-87813050D01*
X138783333Y-87813050D02*
X138707142Y-87851145D01*
X138707142Y-87851145D02*
X138478571Y-87851145D01*
X138478571Y-87851145D02*
X138402380Y-87813050D01*
X138402380Y-87813050D02*
X138364285Y-87774954D01*
X134066667Y-77436104D02*
X134028571Y-77474200D01*
X134028571Y-77474200D02*
X133914286Y-77512295D01*
X133914286Y-77512295D02*
X133838095Y-77512295D01*
X133838095Y-77512295D02*
X133723809Y-77474200D01*
X133723809Y-77474200D02*
X133647619Y-77398009D01*
X133647619Y-77398009D02*
X133609524Y-77321819D01*
X133609524Y-77321819D02*
X133571428Y-77169438D01*
X133571428Y-77169438D02*
X133571428Y-77055152D01*
X133571428Y-77055152D02*
X133609524Y-76902771D01*
X133609524Y-76902771D02*
X133647619Y-76826580D01*
X133647619Y-76826580D02*
X133723809Y-76750390D01*
X133723809Y-76750390D02*
X133838095Y-76712295D01*
X133838095Y-76712295D02*
X133914286Y-76712295D01*
X133914286Y-76712295D02*
X134028571Y-76750390D01*
X134028571Y-76750390D02*
X134066667Y-76788485D01*
X134828571Y-77512295D02*
X134371428Y-77512295D01*
X134600000Y-77512295D02*
X134600000Y-76712295D01*
X134600000Y-76712295D02*
X134523809Y-76826580D01*
X134523809Y-76826580D02*
X134447619Y-76902771D01*
X134447619Y-76902771D02*
X134371428Y-76940866D01*
X137741667Y-105956170D02*
X137475000Y-105575217D01*
X137284524Y-105956170D02*
X137284524Y-105156170D01*
X137284524Y-105156170D02*
X137589286Y-105156170D01*
X137589286Y-105156170D02*
X137665476Y-105194265D01*
X137665476Y-105194265D02*
X137703571Y-105232360D01*
X137703571Y-105232360D02*
X137741667Y-105308551D01*
X137741667Y-105308551D02*
X137741667Y-105422836D01*
X137741667Y-105422836D02*
X137703571Y-105499027D01*
X137703571Y-105499027D02*
X137665476Y-105537122D01*
X137665476Y-105537122D02*
X137589286Y-105575217D01*
X137589286Y-105575217D02*
X137284524Y-105575217D01*
X138046428Y-105232360D02*
X138084524Y-105194265D01*
X138084524Y-105194265D02*
X138160714Y-105156170D01*
X138160714Y-105156170D02*
X138351190Y-105156170D01*
X138351190Y-105156170D02*
X138427381Y-105194265D01*
X138427381Y-105194265D02*
X138465476Y-105232360D01*
X138465476Y-105232360D02*
X138503571Y-105308551D01*
X138503571Y-105308551D02*
X138503571Y-105384741D01*
X138503571Y-105384741D02*
X138465476Y-105499027D01*
X138465476Y-105499027D02*
X138008333Y-105956170D01*
X138008333Y-105956170D02*
X138503571Y-105956170D01*
X130573809Y-91238485D02*
X130497619Y-91200390D01*
X130497619Y-91200390D02*
X130421428Y-91124200D01*
X130421428Y-91124200D02*
X130307142Y-91009914D01*
X130307142Y-91009914D02*
X130230952Y-90971819D01*
X130230952Y-90971819D02*
X130154761Y-90971819D01*
X130192857Y-91162295D02*
X130116666Y-91124200D01*
X130116666Y-91124200D02*
X130040476Y-91048009D01*
X130040476Y-91048009D02*
X130002380Y-90895628D01*
X130002380Y-90895628D02*
X130002380Y-90628961D01*
X130002380Y-90628961D02*
X130040476Y-90476580D01*
X130040476Y-90476580D02*
X130116666Y-90400390D01*
X130116666Y-90400390D02*
X130192857Y-90362295D01*
X130192857Y-90362295D02*
X130345238Y-90362295D01*
X130345238Y-90362295D02*
X130421428Y-90400390D01*
X130421428Y-90400390D02*
X130497619Y-90476580D01*
X130497619Y-90476580D02*
X130535714Y-90628961D01*
X130535714Y-90628961D02*
X130535714Y-90895628D01*
X130535714Y-90895628D02*
X130497619Y-91048009D01*
X130497619Y-91048009D02*
X130421428Y-91124200D01*
X130421428Y-91124200D02*
X130345238Y-91162295D01*
X130345238Y-91162295D02*
X130192857Y-91162295D01*
X131221428Y-90628961D02*
X131221428Y-91162295D01*
X131030952Y-90324200D02*
X130840475Y-90895628D01*
X130840475Y-90895628D02*
X131335714Y-90895628D01*
D12*
%TO.C,Q8*%
X140200475Y-101792099D02*
X141008800Y-101792099D01*
X141008800Y-99937899D02*
X140200475Y-99937899D01*
X141008800Y-100354459D02*
X141008800Y-99937899D01*
X141008800Y-101792099D02*
X141008800Y-101375539D01*
X139726100Y-98794899D02*
G75*
G02*
X139472100Y-98794899I-127000J0D01*
G01*
X139472100Y-98794899D02*
G75*
G02*
X139726100Y-98794899I127000J0D01*
G01*
%TO.C,Q3*%
X130091200Y-92094566D02*
X130091200Y-92511126D01*
X130091200Y-93532206D02*
X130091200Y-93948766D01*
X130091200Y-93948766D02*
X130899525Y-93948766D01*
X130899525Y-92094566D02*
X130091200Y-92094566D01*
X131627900Y-95091766D02*
G75*
G02*
X131373900Y-95091766I-127000J0D01*
G01*
X131373900Y-95091766D02*
G75*
G02*
X131627900Y-95091766I127000J0D01*
G01*
%TO.C,Q2*%
X130091200Y-96016233D02*
X130091200Y-96432793D01*
X130091200Y-97453873D02*
X130091200Y-97870433D01*
X130091200Y-97870433D02*
X130899525Y-97870433D01*
X130899525Y-96016233D02*
X130091200Y-96016233D01*
X131627900Y-99013433D02*
G75*
G02*
X131373900Y-99013433I-127000J0D01*
G01*
X131373900Y-99013433D02*
G75*
G02*
X131627900Y-99013433I127000J0D01*
G01*
%TO.C,Q7*%
X140200475Y-97870433D02*
X141008800Y-97870433D01*
X141008800Y-96016233D02*
X140200475Y-96016233D01*
X141008800Y-96432793D02*
X141008800Y-96016233D01*
X141008800Y-97870433D02*
X141008800Y-97453873D01*
X139726100Y-94873233D02*
G75*
G02*
X139472100Y-94873233I-127000J0D01*
G01*
X139472100Y-94873233D02*
G75*
G02*
X139726100Y-94873233I127000J0D01*
G01*
%TO.C,LDO1*%
X134673000Y-83176999D02*
X136627000Y-83176999D01*
X136627000Y-79823001D02*
X134673000Y-79823001D01*
%TO.C,Q6*%
X140200475Y-93948766D02*
X141008800Y-93948766D01*
X141008800Y-92094566D02*
X140200475Y-92094566D01*
X141008800Y-92511126D02*
X141008800Y-92094566D01*
X141008800Y-93948766D02*
X141008800Y-93532206D01*
X139726100Y-90951566D02*
G75*
G02*
X139472100Y-90951566I-127000J0D01*
G01*
X139472100Y-90951566D02*
G75*
G02*
X139726100Y-90951566I127000J0D01*
G01*
%TO.C,Q1*%
X130091200Y-99937899D02*
X130091200Y-100354459D01*
X130091200Y-101375539D02*
X130091200Y-101792099D01*
X130091200Y-101792099D02*
X130899525Y-101792099D01*
X130899525Y-99937899D02*
X130091200Y-99937899D01*
X131627900Y-102935099D02*
G75*
G02*
X131373900Y-102935099I-127000J0D01*
G01*
X131373900Y-102935099D02*
G75*
G02*
X131627900Y-102935099I127000J0D01*
G01*
D13*
%TO.C,J3*%
X134510000Y-111060000D02*
X134510000Y-111365000D01*
X134510000Y-118940000D02*
X134510000Y-118635000D01*
X135890000Y-110360000D02*
X135430000Y-110360000D01*
X135890000Y-119640000D02*
X135430000Y-119640000D01*
X136810000Y-111060000D02*
X136810000Y-111365000D01*
X136810000Y-118940000D02*
X136810000Y-118635000D01*
D14*
X137760000Y-111800000D02*
G75*
G02*
X137560000Y-111800000I-100000J0D01*
G01*
X137560000Y-111800000D02*
G75*
G02*
X137760000Y-111800000I100000J0D01*
G01*
D12*
%TO.C,Q5*%
X140200475Y-90027100D02*
X141008800Y-90027100D01*
X141008800Y-88172900D02*
X140200475Y-88172900D01*
X141008800Y-88589460D02*
X141008800Y-88172900D01*
X141008800Y-90027100D02*
X141008800Y-89610540D01*
X139726100Y-87029900D02*
G75*
G02*
X139472100Y-87029900I-127000J0D01*
G01*
X139472100Y-87029900D02*
G75*
G02*
X139726100Y-87029900I127000J0D01*
G01*
%TO.C,Q4*%
X130091200Y-88172900D02*
X130091200Y-88589460D01*
X130091200Y-89610540D02*
X130091200Y-90027100D01*
X130091200Y-90027100D02*
X130899525Y-90027100D01*
X130899525Y-88172900D02*
X130091200Y-88172900D01*
X131627900Y-91170100D02*
G75*
G02*
X131373900Y-91170100I-127000J0D01*
G01*
X131373900Y-91170100D02*
G75*
G02*
X131627900Y-91170100I127000J0D01*
G01*
%TD*%
M02*
