M48
; DRILL file {KiCad 9.0.0} date 2025-04-08T23:38:30-0400
; FORMAT={-:-/ absolute / metric / decimal}
; #@! TF.CreationDate,2025-04-08T23:38:30-04:00
; #@! TF.GenerationSoftware,Kicad,Pcbnew,9.0.0
; #@! TF.FileFunction,Plated,1,2,PTH
FMAT,2
METRIC
; #@! TA.AperFunction,Plated,PTH,ViaDrill
T1C0.300
; #@! TA.AperFunction,Plated,PTH,ComponentDrill
T2C1.000
%
G90
G05
T1
X129.25Y-90.1
X129.25Y-94.1
X129.35Y-98.0
X129.35Y-102.0
X129.975Y-118.6
X130.125Y-117.225
X130.57Y-116.256
X131.15Y-117.975
X131.175Y-114.875
X131.65Y-115.55
X131.65Y-119.325
X131.713Y-116.825
X131.85Y-90.7
X131.85Y-94.6
X131.85Y-98.6
X131.85Y-102.5
X133.425Y-108.45
X134.05Y-90.4
X134.05Y-94.2
X134.05Y-98.2
X134.05Y-102.2
X134.9Y-108.525
X135.142Y-109.398
X135.95Y-80.975
X136.412Y-108.509
X137.45Y-87.5
X137.45Y-91.3
X137.45Y-95.4
X137.45Y-99.2
X137.809Y-108.509
X138.15Y-104.4
X139.1Y-117.4
X139.125Y-115.8
X139.25Y-85.0
X139.7Y-87.575
X139.7Y-91.475
X139.7Y-95.425
X139.7Y-99.325
X139.9Y-115.45
X140.6Y-118.975
T2
X126.75Y-75.8
X126.75Y-78.34
X126.75Y-80.88
X126.75Y-83.42
X126.75Y-85.96
X126.75Y-88.5
X126.75Y-91.04
X126.75Y-93.58
X126.75Y-96.12
X126.75Y-98.66
X126.75Y-101.2
X126.75Y-103.74
X126.75Y-106.28
X126.75Y-108.82
X126.75Y-111.36
X126.75Y-113.9
X126.75Y-116.44
X126.75Y-118.98
X126.75Y-121.52
X126.75Y-124.06
X144.5Y-75.8
X144.5Y-78.34
X144.5Y-80.88
X144.5Y-83.42
X144.5Y-85.96
X144.5Y-88.5
X144.5Y-91.04
X144.5Y-93.58
X144.5Y-96.12
X144.5Y-98.66
X144.5Y-101.2
X144.5Y-103.74
X144.5Y-106.28
X144.5Y-108.82
X144.5Y-111.36
X144.5Y-113.9
X144.5Y-116.44
X144.5Y-118.98
X144.5Y-121.52
X144.5Y-124.06
M30
